<?xml version="1.0" encoding="utf-8"?>
<!-- Generator: Adobe Illustrator 22.0.1, SVG Export Plug-In . SVG Version: 6.00 Build 0)  -->
<svg version="1.1" id="Layer_1" xmlns="http://www.w3.org/2000/svg" xmlns:xlink="http://www.w3.org/1999/xlink" x="0px" y="0px"
	 viewBox="0 0 18.7 24.7" style="enable-background:new 0 0 18.7 24.7;" xml:space="preserve">
<style type="text/css">
	.st0{fill:url(#XMLID_2_);}
</style>
<linearGradient id="XMLID_2_" gradientUnits="userSpaceOnUse" x1="-121.3325" y1="-16273.3574" x2="-102.5987" y2="-16273.3574" gradientTransform="matrix(1 0 0 -1 121.3325 -16261)">
	<stop  offset="0" style="stop-color:#E6AC82"/>
	<stop  offset="0.5" style="stop-color:#91A7D5"/>
	<stop  offset="1" style="stop-color:#B6D27C"/>
</linearGradient>
<path id="XMLID_63_" class="st0" d="M9.4,0c0.4,0.4,0.8,0.8,1.2,1.2c1.3,1.3,2.6,2.8,3.7,4.3c1.3,1.7,2.5,3.5,3.4,5.5
	c0.4,1,0.8,2.1,1,3.2c0.1,0.8,0.1,1.6,0,2.4c-0.2,1.5-0.7,2.9-1.6,4.2c-1.5,2.1-3.5,3.3-6,3.8c-3.8,0.7-7.7-1.1-9.7-4.4
	c-0.7-1.2-1.2-2.6-1.3-4c-0.1-1.4,0.1-2.8,0.6-4.1c0.5-1.5,1.3-2.9,2.1-4.3C4.3,5.5,6.1,3.4,8,1.4C8.4,0.9,8.9,0.5,9.4,0z M7.8,19.2
	c1.1,0,2.1,0,3.1,0c0-0.8,0-1.5,0-2.3c0.8,0,1.6,0,2.3,0c0-1,0-2.1,0-3.1c-0.8,0-1.5,0-2.3,0c0-0.8,0-1.6,0-2.3c-1.1,0-2.1,0-3.1,0
	c0,0.8,0,1.5,0,2.3c-0.8,0-1.6,0-2.3,0c0,1,0,2.1,0,3.1c0.8,0,1.5,0,2.3,0C7.8,17.7,7.8,18.5,7.8,19.2z"/>
</svg>
