<svg xmlns="http://www.w3.org/2000/svg" xmlns:xlink="http://www.w3.org/1999/xlink" width="100%" height="100%" viewBox="0 0 40 39"><defs><path id="2gewa" d="M1632.85 42.56l-5.81 5.95 1.02 8.67a3.58 3.58 0 0 1-.9 2.7 2.9 2.9 0 0 1-2.11.86c-.56 0-1.14-.13-1.73-.4l-.06-.03-7.76-4.2-7.82 4.23c-1.46.66-2.94.47-3.84-.46a3.59 3.59 0 0 1-.9-2.7v-.08l1.02-8.6-5.9-6.03a3.63 3.63 0 0 1-.7-3.35 3.66 3.66 0 0 1 2.59-2.26l.1-.03 7.9-1.31 4.5-7.87a3.67 3.67 0 0 1 2.95-1.65c1.17 0 2.27.66 3.02 1.8l.06.1 3.8 7.62 8.74 1.4c1.3.34 2.25 1.15 2.61 2.21.37 1.06.11 2.28-.7 3.34zm-1.09-2.8c-.15-.42-.57-.75-1.2-.93l-9.6-1.53-4.23-8.47c-.74-1.1-1.86-1.12-2.65-.07l-4.88 8.54-8.76 1.47c-.63.19-1.05.53-1.2.97-.15.44-.02.97.37 1.5l6.43 6.57-1.12 9.48c-.02.54.1.97.35 1.22.31.33.9.34 1.56.05l8.67-4.7 8.67 4.7c.66.3 1.25.28 1.56-.05.25-.25.37-.68.36-1.22l-1.13-9.48 6.43-6.57c.38-.53.52-1.05.37-1.47zm-12.97 3.7c.6.56.91 1.33.91 2.3 0 1.03-.35 1.93-1.07 2.7-.7.78-1.76 1.17-3.16 1.17-1.72 0-2.92-.56-3.59-1.68a4.97 4.97 0 0 1-.58-2.33h2.35c0 .48.07.88.23 1.2.29.58.82.87 1.58.87.47 0 .88-.16 1.23-.48.35-.32.52-.78.52-1.38 0-.8-.32-1.32-.97-1.6a4.93 4.93 0 0 0-1.74-.22v-1.7a4.5 4.5 0 0 0 1.62-.22c.53-.24.8-.71.8-1.42 0-.46-.14-.84-.4-1.13a1.49 1.49 0 0 0-1.15-.43c-.56 0-.98.17-1.24.53-.27.36-.4.83-.38 1.43h-2.24c.03-.6.13-1.17.31-1.71.2-.48.5-.91.93-1.31.3-.29.68-.5 1.11-.65.43-.15.96-.23 1.59-.23 1.16 0 2.1.3 2.8.9.72.6 1.07 1.4 1.07 2.4 0 .72-.2 1.32-.63 1.8-.27.31-.55.52-.84.63.22 0 .53.19.94.56z"/></defs><g><g transform="translate(-1595 -24)"><use fill="#008064" xlink:href="#2gewa"/></g></g></svg>